<?xml version="1.0" encoding="UTF-8" standalone="no"?>
<!-- Created with Inkscape (http://www.inkscape.org/) -->

<svg
   xmlns:dc="http://purl.org/dc/elements/1.1/"
   xmlns:cc="http://creativecommons.org/ns#"
   xmlns:rdf="http://www.w3.org/1999/02/22-rdf-syntax-ns#"
   xmlns:svg="http://www.w3.org/2000/svg"
   xmlns="http://www.w3.org/2000/svg"
   xmlns:sodipodi="http://sodipodi.sourceforge.net/DTD/sodipodi-0.dtd"
   xmlns:inkscape="http://www.inkscape.org/namespaces/inkscape"
   width="75"
   height="75"
   id="svg2802"
   sodipodi:version="0.32"
   inkscape:version="0.48.2 r9819"
   sodipodi:docname="execute.svg"
   version="1.0">
  <defs
     id="defs2804" />
  <sodipodi:namedview
     id="base"
     pagecolor="#ffffff"
     bordercolor="#666666"
     borderopacity="1.0"
     gridtolerance="10000"
     guidetolerance="10"
     objecttolerance="10"
     inkscape:pageopacity="0.0"
     inkscape:pageshadow="2"
     inkscape:zoom="9.7466667"
     inkscape:cx="37.5"
     inkscape:cy="49.811901"
     inkscape:document-units="px"
     inkscape:current-layer="layer1"
     inkscape:window-width="1280"
     inkscape:window-height="714"
     inkscape:window-x="7"
     inkscape:window-y="24"
     width="75px"
     height="75px"
     showgrid="true"
     inkscape:window-maximized="0" />
  <metadata
     id="metadata2807">
    <rdf:RDF>
      <cc:Work
         rdf:about="">
        <dc:format>image/svg+xml</dc:format>
        <dc:type
           rdf:resource="http://purl.org/dc/dcmitype/StillImage" />
      </cc:Work>
    </rdf:RDF>
  </metadata>
  <g
     inkscape:label="Layer 1"
     inkscape:groupmode="layer"
     id="layer1"
     style="opacity:1">
    <path
       style="fill:none;stroke:#ffffff;stroke-width:5.10681915;stroke-linejoin:miter;stroke-miterlimit:4;stroke-opacity:1;stroke-dasharray:none;stroke-dashoffset:0"
       d="m 31.716688,2.8354575 0,8.6349695 c -3.014647,0.680572 -5.837328,1.875822 -8.369517,3.490238 L 17.274839,8.8535558 9.0101836,17.162256 15.085788,23.272647 c -1.604947,2.545966 -2.793417,5.383167 -3.470369,8.414146 l -8.5858011,0 0,11.75279 8.5858011,0 c 0.676833,3.032179 1.864868,5.870593 3.470369,8.417461 l -6.0756044,6.110387 8.2646554,8.308683 6.072332,-6.107089 c 2.532107,1.614293 5.354997,2.809688 8.369517,3.490244 l 0,8.631661 11.685865,0 0,-8.631661 c 3.015099,-0.680702 5.833753,-1.878758 8.366242,-3.493542 l 6.075599,6.110387 8.261382,-8.308683 -6.075605,-6.110387 c 1.605696,-2.547074 2.796806,-5.384971 3.473644,-8.417461 l 8.585806,0 0,-11.75279 -8.589079,0 c -0.676985,-3.031038 -1.865351,-5.868141 -3.470371,-8.414146 l 6.075605,-6.110391 -8.261382,-8.3087002 -6.075599,6.1104032 c -2.532572,-1.614884 -5.351016,-2.812814 -8.366242,-3.493532 l 0,-8.6349695 -11.685865,0 z m 5.842929,18.8321345 c 8.72415,0 15.805094,7.121483 15.805094,15.895595 -8e-6,8.774106 -7.080944,15.895597 -15.805094,15.895597 -8.724144,0 -15.805085,-7.121491 -15.805085,-15.895597 0,-8.774112 7.080941,-15.895595 15.805085,-15.895595 z"
       id="rect2811"
       inkscape:connector-curvature="0" />
  </g>
</svg>
